<svg xmlns="http://www.w3.org/2000/svg" width="200" height="60" viewBox="0 0 200 60" fill="none">
  <path d="M23.728 14.084V25.93h-4.523V14.084h4.523zm11.2 0v11.845h-4.524V14.084h4.523zM46.138 25.93V14.084h-4.524V25.93h4.524zm-33.656 0V14.084h-4.523V25.93h4.523zm55.609-11.845v11.844h4.523V14.084h-4.523zM23.728 28.72v11.845h-4.523V28.72h4.523zm11.2 0v11.845h-4.524V28.72h4.523zm11.21 0V40.65h-4.524V28.72h4.524zm-33.656 0v11.845h-4.523V28.72h4.523zm55.609 0v11.845h4.523V28.72h-4.523z" fill="#FFFFFF"/>
  <path d="M35.024 20.133c0 .772-.274 1.431-.823 1.979a2.696 2.696 0 01-1.98.823c-.77 0-1.429-.274-1.977-.823a2.696 2.696 0 01-.824-1.98c0-.77.275-1.43.824-1.978a2.696 2.696 0 011.978-.823c.771 0 1.43.274 1.98.823.548.549.822 1.208.822 1.979zM18.615 20.133c0 .772-.274 1.431-.823 1.979a2.696 2.696 0 01-1.979.823c-.77 0-1.43-.274-1.978-.823a2.696 2.696 0 01-.823-1.98c0-.77.274-1.43.823-1.978a2.696 2.696 0 011.978-.823c.77 0 1.43.274 1.98.823.548.549.822 1.208.822 1.979zM51.432 20.133c0 .772-.274 1.431-.823 1.979a2.696 2.696 0 01-1.978.823c-.772 0-1.431-.274-1.98-.823a2.696 2.696 0 01-.822-1.98c0-.77.274-1.43.823-1.978a2.696 2.696 0 011.979-.823c.77 0 1.43.274 1.978.823.549.549.823 1.208.823 1.979zM35.024 34.654c0 .771-.274 1.43-.823 1.979a2.696 2.696 0 01-1.98.823c-.77 0-1.429-.275-1.977-.823a2.696 2.696 0 01-.824-1.98c0-.77.275-1.429.824-1.978a2.696 2.696 0 011.978-.823c.771 0 1.43.274 1.98.823.548.549.822 1.208.822 1.979zM18.615 34.654c0 .771-.274 1.43-.823 1.979a2.696 2.696 0 01-1.979.823c-.77 0-1.43-.275-1.978-.823a2.696 2.696 0 01-.823-1.98c0-.77.274-1.429.823-1.978a2.696 2.696 0 011.978-.823c.77 0 1.43.274 1.98.823.548.549.822 1.208.822 1.979zM51.432 34.654c0 .771-.274 1.43-.823 1.979a2.696 2.696 0 01-1.978.823c-.772 0-1.431-.275-1.98-.823a2.696 2.696 0 01-.822-1.98c0-.77.274-1.429.823-1.978a2.696 2.696 0 011.979-.823c.77 0 1.43.274 1.978.823.549.549.823 1.208.823 1.979z" fill="#FFFFFF"/>
  <path d="M85.524 27.74c0-1.54-.293-2.864-.878-3.972-.585-1.107-1.395-1.952-2.43-2.534-1.034-.583-2.229-.874-3.583-.874-1.354 0-2.55.291-3.584.874-1.035.582-1.845 1.427-2.43 2.534-.585 1.108-.878 2.432-.878 3.973 0 1.54.293 2.865.878 3.973.585 1.107 1.395 1.951 2.43 2.534 1.035.582 2.23.874 3.584.874 1.354 0 2.55-.292 3.584-.874 1.035-.583 1.845-1.427 2.43-2.534.585-1.108.877-2.432.877-3.973zm-4.062 0c0 .841-.113 1.55-.337 2.126-.225.577-.546 1.01-.962 1.299-.417.29-.911.434-1.482.434-1.126 0-1.942-.46-2.444-1.379-.502-.92-.752-2.084-.752-3.493 0-1.41.253-2.571.759-3.484.506-.912 1.318-1.369 2.437-1.369.571 0 1.065.145 1.482.435.416.29.737.724.962 1.3.224.577.337 1.284.337 2.124v1.007zm20.646-6.872v13.595h-3.875v-5.76h-5.067v5.76h-3.875V20.868h3.875v4.915h5.067v-4.915h3.875zm12.646 0v13.595h-3.876v-5.174h-4.9v5.174h-3.876V20.868h3.875v5.5h4.9v-5.5h3.876zM74.36 29.15l-3.2-8.282h-4.171l5.38 13.595h3.715l5.463-13.595H77.36l-3 8.283z" fill="#FFFFFF"/>
</svg>