<svg width="100" height="100" viewBox="0 0 100 100" xmlns="http://www.w3.org/2000/svg">
  <defs>
    <linearGradient id="hawkGradient" x1="0%" y1="0%" x2="100%" y2="100%">
      <stop offset="0%" style="stop-color:#45b7d1;stop-opacity:1" />
      <stop offset="50%" style="stop-color:#3a9bc1;stop-opacity:1" />
      <stop offset="100%" style="stop-color:#2f7fb1;stop-opacity:1" />
    </linearGradient>
  </defs>
  
  <!-- Background circle -->
  <circle cx="50" cy="50" r="45" fill="url(#hawkGradient)" stroke="#55c7e1" stroke-width="2"/>
  
  <!-- Hawk/Eagle head and beak -->
  <path d="M50 18 C58 20, 65 25, 70 32 C75 40, 75 48, 70 55 C65 62, 58 67, 50 70 C45 67, 40 62, 38 55 C35 48, 35 40, 38 32 C40 25, 45 20, 50 18 Z" 
        fill="#ffffff" opacity="0.9"/>
  
  <!-- Beak -->
  <path d="M30 45 L38 40 L38 50 Z" fill="#ffffff" opacity="0.9"/>
  
  <!-- Eye -->
  <circle cx="52" cy="38" r="4" fill="#45b7d1"/>
  <circle cx="53" cy="37" r="2" fill="#ffffff"/>
  
  <!-- Wing design -->
  <path d="M55 50 C60 45, 68 50, 72 58 C68 62, 60 60, 55 58 Z" fill="#ffffff" opacity="0.7"/>
  <path d="M58 52 C62 48, 68 52, 70 58 C68 60, 62 58, 58 56 Z" fill="#45b7d1" opacity="0.8"/>
  
  <!-- Text -->
  <text x="50" y="85" text-anchor="middle" fill="white" font-family="Arial Black" font-size="8" font-weight="bold">CH</text>
</svg>