<svg width="100" height="100" viewBox="0 0 100 100" xmlns="http://www.w3.org/2000/svg">
  <defs>
    <linearGradient id="wolfGradient" x1="0%" y1="0%" x2="100%" y2="100%">
      <stop offset="0%" style="stop-color:#4ecdc4;stop-opacity:1" />
      <stop offset="50%" style="stop-color:#3bb3ab;stop-opacity:1" />
      <stop offset="100%" style="stop-color:#2a9d96;stop-opacity:1" />
    </linearGradient>
  </defs>
  
  <!-- Background circle -->
  <circle cx="50" cy="50" r="45" fill="url(#wolfGradient)" stroke="#5dd5cc" stroke-width="2"/>
  
  <!-- Wolf head silhouette -->
  <path d="M50 15 C40 18, 30 25, 25 35 C20 40, 18 45, 20 50 C15 55, 20 60, 25 58 C30 65, 35 70, 50 72 C65 70, 70 65, 75 58 C80 60, 85 55, 80 50 C82 45, 80 40, 75 35 C70 25, 60 18, 50 15 Z" 
        fill="#ffffff" opacity="0.9"/>
  
  <!-- Wolf ears -->
  <path d="M35 25 L30 15 L40 20 Z" fill="#ffffff" opacity="0.9"/>
  <path d="M65 25 L70 15 L60 20 Z" fill="#ffffff" opacity="0.9"/>
  
  <!-- Eyes -->
  <circle cx="42" cy="38" r="3" fill="#4ecdc4"/>
  <circle cx="58" cy="38" r="3" fill="#4ecdc4"/>
  
  <!-- Nose -->
  <path d="M50 45 L47 50 L53 50 Z" fill="#4ecdc4"/>
  
  <!-- Text -->
  <text x="50" y="85" text-anchor="middle" fill="white" font-family="Arial Black" font-size="8" font-weight="bold">DW</text>
</svg>