<svg width="100" height="100" viewBox="0 0 100 100" xmlns="http://www.w3.org/2000/svg">
  <defs>
    <linearGradient id="fireGradient" x1="0%" y1="0%" x2="100%" y2="100%">
      <stop offset="0%" style="stop-color:#ff6b35;stop-opacity:1" />
      <stop offset="50%" style="stop-color:#ff4500;stop-opacity:1" />
      <stop offset="100%" style="stop-color:#ff2d00;stop-opacity:1" />
    </linearGradient>
  </defs>
  
  <!-- Background circle -->
  <circle cx="50" cy="50" r="45" fill="url(#fireGradient)" stroke="#ff8c00" stroke-width="2"/>
  
  <!-- Fire flame shape -->
  <path d="M50 20 C45 25, 40 35, 45 45 C40 50, 35 60, 40 70 C35 75, 40 80, 50 75 C60 80, 65 75, 60 70 C65 60, 60 50, 55 45 C60 35, 55 25, 50 20 Z" 
        fill="#ffffff" opacity="0.9"/>
  
  <!-- Inner flame -->
  <path d="M50 30 C47 33, 45 38, 47 43 C45 46, 43 52, 45 58 C43 60, 45 63, 50 61 C55 63, 57 60, 55 58 C57 52, 55 46, 53 43 C55 38, 53 33, 50 30 Z" 
        fill="#ff6b35" opacity="0.8"/>
  
  <!-- Text -->
  <text x="50" y="85" text-anchor="middle" fill="white" font-family="Arial Black" font-size="8" font-weight="bold">FS</text>
</svg>